<svg viewBox="0 0 10 10" xmlns="http://www.w3.org/2000/svg">
    <rect width="10" height="10" rx="1" ry="1" fill="#2084ff" fill-rule="evenodd"/>
    <path d="M9.068 6.097h-4.29c-.324 0-.324-.225-.324-.548 0-.324 0-.549.324-.549h4.285c.323 0 .323.225.323.549 0 .323 0 .548-.323.548zM5.875 3.354c-.324 0-.324-.225-.324-.549 0-.323 0-.548.324-.548h3.188c.323 0 .323.225.323.548 0 .324 0 .55-.323.55zm-5.261-.05l.773-.712.873.872L4.504 1.16l.773.773L2.26 4.951zm4.164 4.44h4.285c.323 0 .323.224.323.548 0 .323 0 .548-.323.548H4.778c-.324 0-.324-.225-.324-.548 0-.324 0-.549.324-.549z" fill="#f9f9f9" fill-rule="evenodd"/>
</svg>
