<?xml version="1.0" standalone="no"?>
<!DOCTYPE svg PUBLIC "-//W3C//DTD SVG 20010904//EN"
 "http://www.w3.org/TR/2001/REC-SVG-20010904/DTD/svg10.dtd">
<svg version="1.0" xmlns="http://www.w3.org/2000/svg"
 width="700.000000pt" height="700.000000pt" viewBox="0 0 700.000000 700.000000"
 preserveAspectRatio="xMidYMid meet">
<metadata>
Created by potrace 1.11, written by Peter Selinger 2001-2013
</metadata>
<g transform="translate(0.000000,700.000000) scale(0.100000,-0.100000)"
fill="#000000" stroke="none">
<path d="M600 6993 c-165 -25 -328 -117 -438 -247 -49 -59 -112 -177 -138
-261 -18 -58 -19 -159 -19 -2985 0 -2826 1 -2927 19 -2985 74 -239 252 -417
491 -491 58 -18 159 -19 2985 -19 2826 0 2927 1 2985 19 239 74 417 252 491
491 18 58 19 159 19 2985 0 2826 -1 2927 -19 2985 -73 236 -240 406 -480 489
l-61 21 -2905 1 c-1598 1 -2916 0 -2930 -3z m2830 -1078 l265 -265 -1058
-1058 -1057 -1057 -576 576 -575 575 228 210 c125 116 247 227 271 249 l43 39
302 -302 c166 -166 305 -302 308 -302 3 0 357 360 785 800 428 440 783 800
789 800 6 0 129 -119 275 -265z m2988 -505 c61 -15 97 -45 123 -104 20 -44 23
-73 27 -222 8 -310 -24 -394 -163 -424 -34 -7 -413 -10 -1210 -8 l-1160 3 -45
25 c-33 18 -52 38 -70 75 -24 49 -25 55 -25 275 0 245 8 291 59 339 54 51 29
50 1266 50 733 0 1171 -3 1198 -9z m0 -1920 c61 -15 97 -45 123 -104 20 -44
23 -73 27 -222 8 -314 -25 -398 -169 -424 -37 -7 -578 -9 -1590 -8 l-1534 3
-47 23 c-92 46 -112 120 -105 393 2 101 10 201 16 222 17 53 71 104 123 115
60 14 3099 15 3156 2z m53 -1942 c36 -21 51 -39 69 -80 21 -47 24 -73 28 -224
8 -314 -25 -398 -169 -424 -37 -7 -580 -9 -1595 -8 l-1539 3 -43 25 c-88 50
-106 123 -99 391 2 101 10 201 16 222 17 53 71 104 123 115 27 6 629 9 1603 9
l1560 -2 46 -27z"/>
</g>
</svg>
